<svg width="52" height="52" viewBox="0 0 52 52" fill="none" xmlns="http://www.w3.org/2000/svg">
<circle cx="26" cy="26" r="26" fill="#087F5B"/>
<path fill-rule="evenodd" clip-rule="evenodd" d="M36.6124 16H20.3857C16.4612 16 14 18.7744 14 22.7019V33.2982C14 37.2258 16.4477 40 20.3857 40H36.6105C40.5504 40 43 37.2258 43 33.2982V22.7019C43 18.7744 40.5504 16 36.6124 16Z" stroke="#F8F9FA" stroke-width="2.5" stroke-linecap="round" stroke-linejoin="round"/>
<path d="M20 24H36" stroke="#F8F9FA" stroke-width="2.5" stroke-linecap="round" stroke-linejoin="round"/>
<path d="M36 15.9985L33.141 11.3784C31.0925 8.10753 27.5493 7.00399 24.1485 8.99186L10.1782 17.1436C6.79091 19.1164 6.10879 22.6745 8.1435 25.9719L13.663 34.8266C13.9202 35.2555 14.2048 35.641 14.5303 35.9867V36" stroke="#F8F9FA" stroke-width="2.5" stroke-linecap="round" stroke-linejoin="round"/>
</svg>
